<svg xmlns="http://www.w3.org/2000/svg" width="512" height="512" style="shape-rendering:geometricPrecision;text-rendering:geometricPrecision;image-rendering:optimizeQuality;fill-rule:evenodd;clip-rule:evenodd"><path style="opacity:.966" fill="#F6227B" d="M232 0h48c21 1 42 7 62 16 18 10 23 25 14 45-8 8-17 14-27 18-24 8-49 11-73 11-25 0-50-3-73-11-11-4-20-10-28-18-9-20-4-35 15-45 19-9 40-15 62-16Zm22 30c22-1 44 3 66 10l8 5c-16 8-33 12-50 13-30 3-58 0-86-9l-7-3c-2-1-2-2 0-2 7-4 14-7 23-9 15-3 30-5 46-5Z"/><path style="opacity:.971" fill="#F6227B" d="M472 512h-20c-37-7-64-26-81-59-37-6-60-26-69-62-19-4-35-14-46-28a76 76 0 0 1-46 28c-10 36-33 56-69 62-18 33-45 52-81 59H40c-6-4-9-9-9-15l10-42c9-44 11-88 5-131l-15-93c-4-57 17-102 64-134 37-16 67-8 91 25 16 48 48 66 98 52 11-5 20-12 27-22 5-13 11-25 18-36 24-27 52-34 86-20 48 32 69 77 65 135l-15 93a383 383 0 0 0 16 173c-1 6-4 11-9 15ZM120 121c16-3 29 3 39 17 13 39 40 63 81 72l1 53-2 62c-4 15-14 26-28 33l-1-79c-4-9-11-12-20-9-5 2-7 4-9 9l-2 107c-4 15-13 26-28 33l-1-109c-4-9-11-12-20-9-5 2-7 4-9 9l-1 97c-2 34-19 58-51 71l-1-1c13-52 16-103 9-155l-15-93c-4-31 4-58 23-81l21-21c4-3 9-5 14-6Zm256 0c10-2 20 0 30 6l20 21c19 23 26 50 23 81l-15 93c-7 52-4 103 10 155l-1 1a77 77 0 0 1-52-71l-1-97c-4-9-11-12-20-9-5 2-7 4-9 9l-1 109c-15-7-24-18-28-33l-2-107c-4-9-11-12-20-9-5 2-7 4-9 9v79c-15-7-25-18-29-33-1-21-2-42-1-62l1-53c28-6 51-20 67-44l15-31c6-7 13-12 22-14Z"/></svg>